<?xml version="1.0" encoding="UTF-8"?>
<svg xmlns="http://www.w3.org/2000/svg" xmlns:xlink="http://www.w3.org/1999/xlink" width="298.275" height="94.16" viewBox="0 0 298.275 94.16">
  <defs>
    <style>.a{fill:none;}.b{clip-path:url(#a);}.c{fill:#fff;}.d{fill:#ffa300;}</style>
    <clipPath id="a">
      <rect class="a" width="298.275" height="94.16" transform="translate(0 0)"></rect>
    </clipPath>
  </defs>
  <g transform="translate(0 0)">
    <g class="b">
      <path class="c" d="M0,0H17.773q8.419,0,12.758,1.311a12.652,12.652,0,0,1,7,5.307q2.666,4,2.665,12.876,0,6-1.883,8.373T30.89,31.5q6.178,1.4,8.379,4.637t2.2,9.928v6.351q0,6.944-1.587,10.288a8.555,8.555,0,0,1-5.056,4.573q-3.471,1.229-14.218,1.228H0ZM17.815,11.721V26.955q1.143-.042,1.777-.043,2.624,0,3.343-1.29t.719-7.384a11.941,11.941,0,0,0-.592-4.507A2.842,2.842,0,0,0,21.517,12.1a13.786,13.786,0,0,0-3.7-.381m0,25.9V56.787q3.765-.127,4.8-1.185T23.654,50.4V44.008q0-4.4-.931-5.332t-4.908-1.058"></path>
      <path class="c" d="M46.125,0h29.7V13.71H63.94V26.7H75.068V39.734H63.94V54.8H77.015v13.71H46.125Z"></path>
      <path class="c" d="M123.1,0V68.508H105.281V39.734H99.95V68.508H82.135V0H99.95V24.5h5.331V0Z"></path>
      <path class="c" d="M130.247,0h29.7V13.71h-11.89V26.7H159.19V39.734H148.062V54.8h13.075v13.71h-30.89Z"></path>
      <path class="c" d="M198.784,0l10.188,68.508H190.766l-.956-12.314h-6.373l-1.07,12.314H163.949L173.036,0Zm-9.441,44.05q-1.353-11.64-2.713-28.774-2.723,19.677-3.419,28.774Z"></path>
      <path class="c" d="M212,0h12.609q12.609,0,17.074.973a11.758,11.758,0,0,1,7.279,4.972q2.813,4,2.813,12.758,0,8-1.988,10.748t-7.828,3.3q5.289,1.311,7.108,3.512a10.488,10.488,0,0,1,2.264,4.041q.446,1.841.444,10.134V68.508H235.228V45.742q0-5.5-.867-6.813t-4.549-1.311v30.89H212Zm17.814,11.721V26.954a7.844,7.844,0,0,0,4.211-.825q1.206-.825,1.205-5.353V17.01q0-3.257-1.163-4.273t-4.253-1.016"></path>
      <path class="c" d="M256.938,0h13.329q12.906,0,17.455,1.185a13.389,13.389,0,0,1,6.918,3.893,12.321,12.321,0,0,1,2.962,6.029,91.1,91.1,0,0,1,.593,13.055V48.154q0,9.225-.868,12.335a9.272,9.272,0,0,1-3.026,4.866,12.567,12.567,0,0,1-5.331,2.454,48.138,48.138,0,0,1-9.563.7H256.938Zm17.814,11.721V56.786q3.85,0,4.74-1.544t.888-8.4V20.226a35.793,35.793,0,0,0-.3-5.966,2.832,2.832,0,0,0-1.354-1.925,8.793,8.793,0,0,0-3.978-.614"></path>
      <path class="d" d="M92.334,78.577,96.2,88.929l3.869-10.352h4.418V93.962h-3.781V84.841h-.132l-3.011,9.121H94.84l-3.011-9.121H91.7v9.121H87.938V78.577Z"></path>
      <path class="d" d="M121.193,86.27c0,4.879-2.9,7.891-7.407,7.891-4.528,0-7.407-3.012-7.407-7.891,0-4.923,2.879-7.891,7.407-7.891,4.506,0,7.407,2.968,7.407,7.891m-3.956,0c0-2.813-1.187-4.638-3.451-4.638s-3.451,1.825-3.451,4.638c0,2.769,1.187,4.638,3.451,4.638s3.451-1.869,3.451-4.638"></path>
      <path class="d" d="M136.864,78.577l-5.912,15.385h-3.385l-5.891-15.385H125.7l3.56,10.748,3.583-10.748Z"></path>
      <path class="d" d="M149.568,90.71v3.253H138.337V78.576h11.011v3.253h-7.253v2.858h6.154V87.7h-6.154V90.71Z"></path>
      <path class="d" d="M155.744,78.577l3.868,10.352,3.869-10.352H167.9V93.962h-3.781V84.841h-.132l-3.011,9.121H158.25l-3.011-9.121h-.132v9.121h-3.759V78.577Z"></path>
      <path class="d" d="M181.459,90.71v3.253H170.227V78.576h11.012v3.253h-7.253v2.858h6.154V87.7h-6.154V90.71Z"></path>
      <path class="d" d="M196.493,93.963h-3.934l-5.473-9.055H187v9.055h-3.759V78.577h3.781l5.6,9.319h.088V78.577h3.78Z"></path>
      <path class="d" d="M210.472,81.83h-4.33V93.963h-3.781V81.83h-4.307V78.577h12.418Z"></path>
      <rect class="d" width="83.27" height="1.079" transform="translate(215.005 85.348)"></rect>
      <path class="c" d="M0,0H17.773q8.419,0,12.758,1.311a12.652,12.652,0,0,1,7,5.307q2.666,4,2.665,12.876,0,6-1.883,8.373T30.89,31.5q6.178,1.4,8.379,4.637t2.2,9.928v6.351q0,6.944-1.587,10.288a8.555,8.555,0,0,1-5.056,4.573q-3.471,1.229-14.218,1.228H0ZM17.815,11.721V26.955q1.143-.042,1.777-.043,2.624,0,3.343-1.29t.719-7.384a11.941,11.941,0,0,0-.592-4.507A2.842,2.842,0,0,0,21.517,12.1a13.786,13.786,0,0,0-3.7-.381m0,25.9V56.787q3.765-.127,4.8-1.185T23.654,50.4V44.008q0-4.4-.931-5.332t-4.908-1.058"></path>
      <path class="c" d="M46.125,0h29.7V13.71H63.94V26.7H75.068V39.734H63.94V54.8H77.015v13.71H46.125Z"></path>
      <path class="c" d="M123.1,0V68.508H105.281V39.734H99.95V68.508H82.135V0H99.95V24.5h5.331V0Z"></path>
      <path class="c" d="M130.247,0h29.7V13.71h-11.89V26.7H159.19V39.734H148.062V54.8h13.075v13.71h-30.89Z"></path>
      <path class="c" d="M198.784,0l10.188,68.508H190.766l-.956-12.314h-6.373l-1.07,12.314H163.949L173.036,0Zm-9.441,44.05q-1.353-11.64-2.713-28.774-2.723,19.677-3.419,28.774Z"></path>
      <path class="c" d="M212,0h12.609q12.609,0,17.074.973a11.758,11.758,0,0,1,7.279,4.972q2.813,4,2.813,12.758,0,8-1.988,10.748t-7.828,3.3q5.289,1.311,7.108,3.512a10.488,10.488,0,0,1,2.264,4.041q.446,1.841.444,10.134V68.508H235.228V45.742q0-5.5-.867-6.813t-4.549-1.311v30.89H212Zm17.814,11.721V26.954a7.844,7.844,0,0,0,4.211-.825q1.206-.825,1.205-5.353V17.01q0-3.257-1.163-4.273t-4.253-1.016"></path>
      <path class="c" d="M256.938,0h13.329q12.906,0,17.455,1.185a13.389,13.389,0,0,1,6.918,3.893,12.321,12.321,0,0,1,2.962,6.029,91.1,91.1,0,0,1,.593,13.055V48.154q0,9.225-.868,12.335a9.272,9.272,0,0,1-3.026,4.866,12.567,12.567,0,0,1-5.331,2.454,48.138,48.138,0,0,1-9.563.7H256.938Zm17.814,11.721V56.786q3.85,0,4.74-1.544t.888-8.4V20.226a35.793,35.793,0,0,0-.3-5.966,2.832,2.832,0,0,0-1.354-1.925,8.793,8.793,0,0,0-3.978-.614"></path>
      <path class="d" d="M92.334,78.577,96.2,88.929l3.869-10.352h4.418V93.962h-3.781V84.841h-.132l-3.011,9.121H94.84l-3.011-9.121H91.7v9.121H87.938V78.577Z"></path>
      <path class="d" d="M121.193,86.27c0,4.879-2.9,7.891-7.407,7.891-4.528,0-7.407-3.012-7.407-7.891,0-4.923,2.879-7.891,7.407-7.891,4.506,0,7.407,2.968,7.407,7.891m-3.956,0c0-2.813-1.187-4.638-3.451-4.638s-3.451,1.825-3.451,4.638c0,2.769,1.187,4.638,3.451,4.638s3.451-1.869,3.451-4.638"></path>
      <path class="d" d="M136.864,78.577l-5.912,15.385h-3.385l-5.891-15.385H125.7l3.56,10.748,3.583-10.748Z"></path>
      <path class="d" d="M149.568,90.71v3.253H138.337V78.576h11.011v3.253h-7.253v2.858h6.154V87.7h-6.154V90.71Z"></path>
      <path class="d" d="M155.744,78.577l3.868,10.352,3.869-10.352H167.9V93.962h-3.781V84.841h-.132l-3.011,9.121H158.25l-3.011-9.121h-.132v9.121h-3.759V78.577Z"></path>
      <path class="d" d="M181.459,90.71v3.253H170.227V78.576h11.012v3.253h-7.253v2.858h6.154V87.7h-6.154V90.71Z"></path>
      <path class="d" d="M196.493,93.963h-3.934l-5.473-9.055H187v9.055h-3.759V78.577h3.781l5.6,9.319h.088V78.577h3.78Z"></path>
      <path class="d" d="M210.472,81.83h-4.33V93.963h-3.781V81.83h-4.307V78.577h12.418Z"></path>
      <rect class="d" width="83.27" height="1.079" transform="translate(0.151 85.348)"></rect>
      <rect class="d" width="83.27" height="1.079" transform="translate(215.005 85.348)"></rect>
    </g>
  </g>
</svg>
